<?xml version="1.0" standalone="no"?>
<!DOCTYPE svg PUBLIC "-//W3C//DTD SVG 20010904//EN"
 "http://www.w3.org/TR/2001/REC-SVG-20010904/DTD/svg10.dtd">
<svg version="1.0" xmlns="http://www.w3.org/2000/svg"
 width="295.000000pt" height="295.000000pt" viewBox="0 0 295.000000 295.000000"
 preserveAspectRatio="xMidYMid meet">
<metadata>
Created by potrace 1.11, written by Peter Selinger 2001-2013
</metadata>
<g transform="translate(0.000000,295.000000) scale(0.100000,-0.100000)"
fill="#000000" stroke="none">
<path d="M245 2562 c-27 -6 -45 -22 -56 -49 -10 -26 -16 -6 166 -538 70 -203
135 -395 145 -425 10 -30 48 -140 83 -245 36 -104 127 -370 201 -590 75 -220
145 -408 154 -418 25 -24 62 -29 88 -12 12 8 140 178 283 379 l262 365 302
-216 c332 -238 346 -245 393 -190 19 23 21 32 13 59 -5 18 -17 39 -26 46 -10
7 -147 106 -305 219 -182 129 -285 209 -281 217 14 22 105 146 108 146 1 0
196 -138 431 -306 236 -169 441 -311 457 -316 21 -8 33 -6 52 6 47 31 55 82
18 117 -10 9 -210 154 -445 322 l-427 305 56 76 c33 46 60 75 68 72 7 -2 140
-96 296 -207 155 -111 295 -207 311 -213 57 -21 116 42 90 98 -7 15 -129 109
-311 238 -165 117 -300 216 -301 220 0 4 115 168 256 365 141 197 260 368 265
380 5 13 5 33 0 46 -21 55 50 52 -1185 52 -628 1 -1150 -1 -1161 -3z m2117
-157 c-3 -5 -99 -142 -214 -302 l-209 -293 -52 38 c-29 21 -62 44 -73 52 -12
8 -72 51 -133 94 -61 44 -122 81 -135 83 -37 5 -79 -36 -78 -75 0 -18 3 -36 7
-42 3 -5 89 -69 190 -141 113 -80 182 -136 178 -143 -15 -25 -105 -146 -108
-146 -3 0 -146 101 -319 225 -173 125 -325 228 -336 230 -51 10 -98 -44 -85
-96 6 -23 73 -77 235 -188 36 -25 70 -49 75 -54 6 -4 80 -58 165 -118 85 -61
159 -114 164 -119 6 -6 -2 -26 -20 -52 -41 -62 -78 -108 -85 -108 -4 0 -88 59
-189 130 -121 86 -191 130 -208 130 -37 0 -72 -37 -72 -76 0 -40 16 -54 222
-199 86 -60 157 -113 158 -116 0 -3 -56 -84 -124 -180 -68 -96 -164 -229 -212
-297 -48 -67 -89 -121 -91 -119 -3 4 -145 418 -338 987 -51 151 -141 414 -199
584 -57 170 -103 312 -101 315 6 11 1993 7 1987 -4z"/>
</g>
</svg>
